<svg height="19" viewBox="0 0 87 19" width="87" xmlns="http://www.w3.org/2000/svg"><path d="m8.58594.9375h3.51566v11.8125c0 1.0859-.2422 2.0469-.7266 2.8828-.4766.8281-1.1523 1.4688-2.02734 1.9219-.875.4531-1.86328.6797-2.96485.6797-1.80469 0-3.21093-.4571-4.21875-1.3711-1.00781-.9219-1.511716-2.2227-1.511716-3.9024h3.539066c0 .836.17578 1.4532.52734 1.8516s.90625.5977 1.66406.5977c.67188 0 1.20703-.2305 1.60547-.6914.39844-.461.59766-1.1172.59766-1.9688zm20.54296 8.91797c0 1.67973-.2969 3.15233-.8906 4.41793-.5938 1.2657-1.4453 2.2422-2.5547 2.9297-1.1016.6875-2.3672 1.0313-3.7969 1.0313-1.414 0-2.6758-.3399-3.7851-1.0196-1.1094-.6796-1.9688-1.6484-2.5782-2.9062-.6093-1.2656-.9179-2.7188-.9257-4.35938v-.84375c0-1.67969.3007-3.15625.9023-4.42969.6094-1.28125 1.4648-2.26172 2.5664-2.9414 1.1094-.6875 2.375-1.031255 3.7969-1.031255s2.6836.343755 3.7851 1.031255c1.1094.67968 1.9649 1.66015 2.5664 2.9414.6094 1.27344.9141 2.7461.9141 4.41797zm-3.5625-.77344c0-1.78906-.3203-3.14844-.9609-4.07812-.6407-.92969-1.5547-1.39453-2.7422-1.39453-1.1797 0-2.0899.46093-2.7305 1.38281-.6406.91406-.9648 2.25781-.9726 4.03125v.83203c0 1.74223.3203 3.09373.9609 4.05473.6406.9609 1.5625 1.4414 2.7656 1.4414 1.1797 0 2.086-.461 2.7188-1.3828.6328-.9297.9531-2.2813.9609-4.05474zm6.1172 8.91797v-17.0625h5.9766c2.0703 0 3.6406.39844 4.7109 1.19531 1.0703.78907 1.6055 1.94922 1.6055 3.48047 0 .83594-.2149 1.57422-.6446 2.21484-.4297.63282-1.0273 1.09766-1.7929 1.39454.875.21875 1.5625.66015 2.0625 1.32424.5078.664.7617 1.4765.7617 2.4375 0 1.6406-.5235 2.8828-1.5703 3.7265-1.0469.8438-2.5391 1.2735-4.4766 1.2891zm3.5156-7.4297v4.6055h3.0117c.8282 0 1.4727-.1953 1.9336-.586.4688-.3984.7032-.9453.7032-1.6406 0-1.5625-.8086-2.3554-2.4258-2.3789zm0-2.48436h2.6016c1.7734-.03125 2.6601-.73828 2.6601-2.1211 0-.77343-.2265-1.32812-.6797-1.66406-.4453-.34375-1.1523-.51562-2.121-.51562h-2.461zm22.0781 2.51956h-6.75v4.5703h7.9219v2.8242h-11.4375v-17.0625h11.4141v2.84766h-7.8985v4.0664h6.75zm6.75 4.5703h7.4649v2.8242h-10.9805v-17.0625h3.5156zm22.7579-5.32033c0 1.67973-.2969 3.15233-.8907 4.41793-.5937 1.2657-1.4453 2.2422-2.5547 2.9297-1.1015.6875-2.3671 1.0313-3.7968 1.0313-1.4141 0-2.6758-.3399-3.7852-1.0196-1.1094-.6796-1.9687-1.6484-2.5781-2.9062-.6094-1.2656-.918-2.7188-.9258-4.35938v-.84375c0-1.67969.3008-3.15625.9023-4.42969.6094-1.28125 1.4649-2.26172 2.5665-2.9414 1.1093-.6875 2.375-1.031255 3.7968-1.031255 1.4219 0 2.6836.343755 3.7852 1.031255 1.1094.67968 1.9648 1.66015 2.5664 2.9414.6094 1.27344.9141 2.7461.9141 4.41797zm-3.5625-.77344c0-1.78906-.3204-3.14844-.961-4.07812-.6406-.92969-1.5547-1.39453-2.7422-1.39453-1.1797 0-2.0898.46093-2.7304 1.38281-.6407.91406-.9649 2.25781-.9727 4.03125v.83203c0 1.74223.3203 3.09373.9609 4.05473.6407.9609 1.5625 1.4414 2.7657 1.4414 1.1797 0 2.0859-.461 2.7187-1.3828.6328-.9297.9531-2.2813.961-4.05474z" fill="#fff"/></svg>