<svg fill="none" height="900" viewBox="0 0 1440 900" width="1440" xmlns="http://www.w3.org/2000/svg" xmlns:xlink="http://www.w3.org/1999/xlink"><filter id="a" color-interpolation-filters="sRGB" filterUnits="userSpaceOnUse" height="1059" width="1059" x="712" y="-376"><feFlood flood-opacity="0" result="BackgroundImageFix"/><feBlend in="SourceGraphic" in2="BackgroundImageFix" mode="normal" result="shape"/><feGaussianBlur result="effect1_foregroundBlur" stdDeviation="75"/></filter><filter id="b" color-interpolation-filters="sRGB" filterUnits="userSpaceOnUse" height="1059" width="1059" x="499" y="23"><feFlood flood-opacity="0" result="BackgroundImageFix"/><feBlend in="SourceGraphic" in2="BackgroundImageFix" mode="normal" result="shape"/><feGaussianBlur result="effect1_foregroundBlur" stdDeviation="75"/></filter><filter id="c" color-interpolation-filters="sRGB" filterUnits="userSpaceOnUse" height="1059" width="1319" x="301" y="-443"><feFlood flood-opacity="0" result="BackgroundImageFix"/><feBlend in="SourceGraphic" in2="BackgroundImageFix" mode="normal" result="shape"/><feGaussianBlur result="effect1_foregroundBlur" stdDeviation="75"/></filter><linearGradient id="d" gradientUnits="userSpaceOnUse" x1="910.5" x2="1440" y1="112.5" y2="900"><stop offset="0" stop-color="#775dfa"/><stop offset="1" stop-color="#6165f6"/></linearGradient><linearGradient id="e" gradientUnits="userSpaceOnUse" x1="332" x2="1422" y1="469" y2="469"><stop offset="0" stop-color="#775dfa"/><stop offset="1" stop-color="#5a9ef5"/></linearGradient><clipPath id="f"><path d="m0 0h1440v900h-1440z"/></clipPath><g clip-path="url(#f)"><path d="m0 0h1440v900h-1440z" fill="#fff"/><path d="m0 0h1440v900h-1440z" fill="url(#d)"/><g filter="url(#a)"><circle cx="1241.5" cy="153.5" fill="#745df2" r="379.5"/></g><g filter="url(#b)"><circle cx="1028.5" cy="552.5" fill="#745df2" fill-opacity=".5" r="379.5"/></g><path d="m0 0h1440v900h-1440z" fill="url(#e)"/><g filter="url(#c)"><ellipse cx="960.5" cy="86.5" fill="#745df2" fill-opacity=".3" rx="509.5" ry="379.5"/></g><g fill="#fff" fill-opacity=".5"><path d="m1438.6 122.808c-33.1-27.6931-86.93-64.0643-140.86-83.1603-53.9-19.0851-108.13-20.9827-141.71 20.6653-18.42 22.841-38.41 55.335-60.74 91.633l-.18.295c-2.93 4.759-5.9 9.583-8.91 14.459-26.05 42.205-55.26 88.325-88.787 129.919-67.061 83.202-151.259 148.157-261.783 127.559-53.077-9.892-94.752-19.874-128.856-28.043-1.486-.356-2.957-.708-4.415-1.057-34.897-8.354-61.766-14.651-84.906-16.706-23.16-2.057-42.607.133-62.666 8.761-20.044 8.622-40.667 23.659-66.205 47.237-22.518 20.79-43.733 44.497-65.19 68.475-2.884 3.223-5.773 6.451-8.67 9.677-24.456 27.239-49.497 54.376-77.416 77.605-55.815 46.437-123.124 77.25-220.1951 61.886-77.7889-12.311-126.6579-21.932-156.1399-28.955-14.743-3.512-24.627-6.371-30.852-8.589-3.114-1.11-5.296-2.054-6.708-2.831-.707-.39-1.203-.728-1.523-1.012-.337-.3-.408-.477-.416-.534l-.991.134c.058.425.361.808.742 1.147.399.354.967.734 1.706 1.141 1.48.815 3.72 1.779 6.855 2.897 6.274 2.235 16.198 5.105 30.955 8.62 29.518 7.031 78.4153 16.657 156.2156 28.97 97.4154 15.418 165.0054-15.527 220.9914-62.106 27.98-23.279 53.064-50.465 77.52-77.705 2.893-3.221 5.776-6.443 8.655-9.66l.015-.017.001-.002c21.462-23.982 42.643-47.651 65.123-68.406 25.507-23.549 46.032-38.497 65.922-47.053 19.876-8.549 39.15-10.729 62.182-8.684 23.052 2.047 49.844 8.324 84.763 16.682 1.458.349 2.93.702 4.417 1.058 34.104 8.169 75.801 18.156 128.903 28.053 111.089 20.703 195.621-44.635 262.744-127.914 33.569-41.648 62.809-87.816 88.869-130.021 3.07-4.98 6.1-9.904 9.09-14.758 22.33-36.31 42.29-68.7408 60.66-91.5274 33.15-41.1185 86.78-39.404 140.6-20.3502 53.78 19.043 107.51 55.3375 140.55 82.9846z"/><path d="m1467.45 180.926c-33.1-27.694-86.93-64.065-140.86-83.1608-53.9-19.0852-108.13-20.9827-141.71 20.6648-18.41 22.841-38.41 55.336-60.74 91.633l-.1.166-.04.065-.22.356c-2.87 4.665-5.78 9.391-8.73 14.168-26.05 42.204-55.26 88.325-88.79 129.919-67.057 83.202-151.256 148.156-261.779 127.558-53.077-9.891-94.753-19.874-128.856-28.043-1.486-.356-2.958-.708-4.415-1.057-34.897-8.353-61.767-14.651-84.907-16.706-23.159-2.056-42.606.133-62.665 8.762-20.044 8.622-40.668 23.659-66.206 47.237-22.517 20.789-43.732 44.496-65.19 68.475l-.033.037c-2.873 3.21-5.751 6.426-8.636 9.64-24.456 27.239-49.497 54.376-77.417 77.604-55.814 46.437-123.123 77.25-220.1945 61.887-77.7889-12.312-126.6579-21.933-156.1405-28.955-14.742-3.512-24.626-6.372-30.851-8.59-3.115-1.11-5.297-2.054-6.708-2.831-.708-.389-1.204-.727-1.524-1.012-.336-.299-.407-.477-.415-.534l-.991.135c.058.425.36.807.742 1.147.398.354.966.733 1.705 1.14 1.481.815 3.721 1.78 6.855 2.897 6.274 2.236 16.199 5.105 30.956 8.62 29.5175 7.032 78.4149 16.657 156.2151 28.97 97.4159 15.418 165.0059-15.526 220.9909-62.105 27.981-23.28 53.065-50.466 77.521-77.705 2.897-3.227 5.786-6.455 8.67-9.678l.002-.002.001-.002.002-.002c21.46-23.981 42.64-47.648 65.119-68.402 25.507-23.549 46.032-38.497 65.922-47.053 19.875-8.549 39.15-10.729 62.182-8.684 23.052 2.048 49.844 8.324 84.762 16.683 1.458.349 2.931.701 4.417 1.057 34.104 8.169 75.801 18.157 128.903 28.053 111.089 20.704 195.622-44.634 262.743-127.914 33.57-41.647 62.81-87.815 88.87-130.021 3.07-4.98 6.1-9.903 9.09-14.758 22.33-36.309 42.29-68.74 60.66-91.527 33.16-41.1185 86.79-39.404 140.6-20.3502 53.78 19.0432 107.51 55.3372 140.55 82.9852z"/><path d="m1365.14 164.251c53.93 19.095 107.76 55.467 140.86 83.16l-.64.767c-33.05-27.647-86.78-63.942-140.56-82.985-53.81-19.054-107.44-20.768-140.59 20.35-18.38 22.787-38.33 55.218-60.67 91.527-2.99 4.855-6.01 9.779-9.09 14.758-26.05 42.206-55.3 88.374-88.86 130.021-67.126 83.28-151.658 148.618-262.747 127.915-53.102-9.897-94.799-19.884-128.903-28.053l-.729-.175c-1.24-.297-2.469-.591-3.688-.883-34.919-8.358-61.711-14.635-84.763-16.682-23.032-2.046-42.306.134-62.182 8.684-19.89 8.555-40.415 23.503-65.922 47.053-22.479 20.754-43.66 44.423-65.122 68.405l-.002.003c-2.884 3.222-5.772 6.45-8.67 9.677-24.456 27.239-49.54 54.425-77.52 77.705-55.986 46.579-123.576 77.524-220.9914 62.106-77.80034-12.314-126.6977-21.939-156.2154-28.97-14.7572-3.516-24.6814-6.385-30.9552-8.621-3.135-1.117-5.375-2.081-6.855-2.897-.739-.406-1.307-.786-1.706-1.14-.381-.339-.684-.722-.742-1.147l.991-.134c.008.056.079.234.416.534.32.284.816.622 1.523 1.011 1.412.778 3.594 1.721 6.708 2.831 6.225 2.219 16.1092 5.078 30.8519 8.59 29.4821 7.023 78.35109 16.643 156.14 28.955 97.0711 15.364 164.3801-15.449 220.1951-61.887 27.919-23.228 52.96-50.365 77.416-77.604 2.897-3.226 5.785-6.454 8.669-9.677 21.458-23.978 42.673-47.686 65.191-68.475 25.538-23.578 46.161-38.615 66.205-47.237 20.059-8.628 39.506-10.818 62.666-8.761 23.14 2.055 50.009 8.352 84.906 16.705 1.276.306 2.562.614 3.86.925l.555.133c34.104 8.168 75.779 18.151 128.856 28.043 110.524 20.598 194.722-44.357 261.784-127.559 33.52-41.594 62.74-87.714 88.79-129.919 3.04-4.924 6.04-9.796 8.99-14.601l.1-.153c22.33-36.298 42.32-68.792 60.74-91.633 33.58-41.648 87.81-39.751 141.71-20.665z"/><path d="m1535.29 320.556c-33.1-27.694-86.93-64.065-140.86-83.161-53.9-19.085-108.13-20.983-141.71 20.665-18.42 22.841-38.41 55.335-60.74 91.633-2.99 4.855-6.02 9.777-9.09 14.754-26.05 42.205-55.27 88.325-88.79 129.919-67.06 83.203-151.26 148.157-261.784 127.559-53.075-9.892-94.75-19.874-128.853-28.042l-.003-.001-4.415-1.057c-34.897-8.354-61.766-14.651-84.906-16.706-23.16-2.057-42.607.133-62.666 8.761-20.044 8.622-40.667 23.659-66.205 47.237-22.518 20.79-43.733 44.497-65.191 68.476l-.033.036c-2.873 3.211-5.75 6.426-8.636 9.64-24.456 27.239-49.497 54.376-77.416 77.605-55.815 46.437-123.124 77.25-220.195 61.886-77.789-12.311-126.658-21.932-156.1401-28.955-14.7427-3.512-24.6268-6.371-30.8514-8.589-3.1146-1.11-5.2967-2.054-6.7085-2.831-.7073-.39-1.2032-.728-1.5232-1.012-.3368-.3-.4077-.477-.4154-.534l-.9909.134c.0577.425.3602.808.7419 1.147.3985.354.9663.734 1.7052 1.141 1.4806.815 3.7204 1.78 6.8552 2.897 6.2741 2.235 16.1982 5.105 30.9554 8.62 29.5178 7.031 78.4151 16.657 156.2158 28.97 97.415 15.418 165.005-15.527 220.991-62.106 27.98-23.279 53.064-50.465 77.52-77.704 2.898-3.228 5.786-6.456 8.67-9.678l.002-.003c21.462-23.982 42.643-47.651 65.122-68.405 25.507-23.549 46.032-38.497 65.922-47.053 19.876-8.549 39.15-10.729 62.182-8.684 23.052 2.047 49.844 8.324 84.763 16.682l4.417 1.058.003.001c34.103 8.168 75.799 18.156 128.9 28.052 111.089 20.703 195.617-44.635 262.747-127.914 33.56-41.648 62.81-87.816 88.86-130.021 3.08-4.98 6.1-9.904 9.09-14.758 22.34-36.31 42.29-68.741 60.67-91.527 33.15-41.119 86.78-39.404 140.59-20.351 53.78 19.043 107.51 55.338 140.56 82.986z"/><path d="m1218.5 33c3.04 0 5.5-2.4624 5.5-5.5s-2.46-5.5-5.5-5.5-5.5 2.4624-5.5 5.5 2.46 5.5 5.5 5.5z"/><path d="m1137 199.5c0 3.038-2.46 5.5-5.5 5.5s-5.5-2.462-5.5-5.5 2.46-5.5 5.5-5.5 5.5 2.462 5.5 5.5z"/><path d="m1026.5 264c3.04 0 5.5-2.462 5.5-5.5s-2.46-5.5-5.5-5.5-5.5 2.462-5.5 5.5 2.46 5.5 5.5 5.5z"/><path d="m484 380.5c0 3.038-2.462 5.5-5.5 5.5s-5.5-2.462-5.5-5.5 2.462-5.5 5.5-5.5 5.5 2.462 5.5 5.5z"/><path d="m348.5 680c3.038 0 5.5-2.462 5.5-5.5s-2.462-5.5-5.5-5.5-5.5 2.462-5.5 5.5 2.462 5.5 5.5 5.5z"/><path d="m124 713.5c0 3.038-2.462 5.5-5.5 5.5s-5.5-2.462-5.5-5.5 2.462-5.5 5.5-5.5 5.5 2.462 5.5 5.5z"/><path d="m263 835.5c0 3.038-2.462 5.5-5.5 5.5s-5.5-2.462-5.5-5.5 2.462-5.5 5.5-5.5 5.5 2.462 5.5 5.5z"/><path d="m1075.5 414c3.04 0 5.5-2.462 5.5-5.5s-2.46-5.5-5.5-5.5-5.5 2.462-5.5 5.5 2.46 5.5 5.5 5.5z"/><path d="m967 606.5c0 3.038-2.462 5.5-5.5 5.5s-5.5-2.462-5.5-5.5 2.462-5.5 5.5-5.5 5.5 2.462 5.5 5.5z"/><path d="m864 479.5c0 3.038-2.462 5.5-5.5 5.5s-5.5-2.462-5.5-5.5 2.462-5.5 5.5-5.5 5.5 2.462 5.5 5.5z"/><path d="m1361.5 235c3.04 0 5.5-2.462 5.5-5.5s-2.46-5.5-5.5-5.5-5.5 2.462-5.5 5.5 2.46 5.5 5.5 5.5z"/></g></g></svg>