<svg height="819" viewBox="0 0 1254 819" width="1254" xmlns="http://www.w3.org/2000/svg"><g fill="#fff" fill-rule="nonzero"><path d="m1281.42439 215.394675c47.06385 16.664823 99.25182 48.582209 139.646 82.143338l1.22044 1.017493-.64166.766988c-40.47498-33.861314-93.1434-66.195948-140.55856-82.985169-61.42911-21.751414-110.43505-17.053174-140.59138 20.35052l-.80224.999312-1.14585 1.442507c-12.37003 15.668816-25.46115 35.365677-45.58629 67.799688l-30.06168 48.699054-2.58481 4.14707-2.76 4.411239c-8.79854 14.032797-16.70952 26.356897-24.56972 38.215457l-.81298 1.225138c-44.804925 67.443419-85.986277 116.077559-131.531173 150.326592-56.188976 42.253211-115.91127 59.180063-181.511095 46.954634-2.511584-.468083-5.015062-.939615-7.511294-1.414684-32.479005-6.181233-61.542666-12.487866-95.526391-20.481827l-10.866911-2.575932-31.567738-7.53615-8.791845-2.0682c-7.977566-1.860114-14.555358-3.341064-20.705692-4.654756l-1.205166-.25644c-44.416113-9.414692-70.040902-10.195114-95.778316-1.338951-21.928706 7.545598-44.140296 22.596255-73.346672 49.453303l-2.020795 1.867223-1.205724 1.12348c-14.857918 13.888833-29.303977 29.038575-49.665105 51.611736l-20.306724 22.648521c-24.326782 27.123122-39.763765 43.502496-56.763632 59.567212l-.548938.518121c-21.947556 20.690678-43.087835 37.178609-65.180413 50.230088-52.072474 30.762495-109.1553568 41.96386-177.50119778 31.146573l-8.39316771-1.335783-7.88667111-1.269157c-62.4251085-10.101329-108.8223044-18.953727-139.9355454-26.364896l-2.344728-.56279-2.898833-.708352c-22.730616-5.612376-34.41939-9.912006-35.014155-12.451614v-.082047l.990924-.134428c.272581 2.009319 13.927373 6.875406 39.498509 12.966447l2.045494.484127c33.76278 7.940641 84.8308837 17.508481 154.09449844 28.470787 68.11426326 10.780635 124.96231056-.374649 176.83623656-31.019848 21.622507-12.773779 42.339045-28.856854 63.809495-48.974916l1.193589-1.121826c16.826508-15.862899 32.023182-31.931297 55.697964-58.291546l19.514295-21.774949 3.890526-4.315218 4.104563-4.528049c17.712087-19.478496 30.954129-33.204206 44.612903-45.93604l1.81109-1.680124 1.77568-1.632832c28.863606-26.433504 50.952704-41.327363 72.811161-48.848789 25.686821-8.838754 51.217596-8.157406 94.979335 1.025404l3.145378.667525 4.158627.902658c6.604656 1.450447 13.917681 3.133406 22.991626 5.278247l41.759839 9.955021 4.853214 1.141606 5.449323 1.272877c30.658453 7.133293 57.687196 12.936045 87.617049 18.632136 2.494987.474833 4.997218.946129 7.507548 1.413979 65.30625 12.170717 124.750209-4.677248 180.726868-46.770799 44.98188-33.825654 85.7289-81.753892 129.957897-148.06563l1.34134-2.015078c8.68757-13.077123 17.4029-26.672686 27.27837-42.46916l5.62217-9.032576c7.75816-12.5254 24.19802-39.237505 25.88311-41.960557l3.88403-6.259702c20.11755-32.329481 33.10875-51.663194 45.71036-67.291787 30.47816-37.802867 79.919-42.542802 141.70364-20.665499zm-29.29-73.144c47.06385 16.664823 99.25182 48.582209 139.646 82.143338l1.22044 1.017493-.64166.766988c-40.47498-33.861314-93.1434-66.195948-140.55856-82.985169-61.42911-21.751414-110.43505-17.053174-140.59138 20.35052l-.80223.999311-1.14585 1.442503c-12.37001 15.668788-25.46111 35.365611-45.5862 67.799535l-27.0118 43.780869-3.04982 4.918061-2.58481 4.14706c-9.94704 15.930579-18.70184 29.612402-27.39741 42.728802l-.74521 1.122917c-44.804963 67.443468-85.986327 116.077592-131.531249 150.326557-56.189022 42.253138-115.911369 59.179813-181.511256 46.954077-2.51316-.468366-5.018204-.940184-7.515991-1.415545-31.70491-6.033846-60.155218-12.187172-93.105165-19.912996l-13.285469-3.143895-29.762079-7.107589c-13.712528-3.25754-23.506215-5.499592-32.507566-7.407532l-2.642523-.554492-2.546794-.523252c-41.25568-8.383295-65.869802-8.766269-90.587772-.261028-21.928721 7.545485-44.140319 22.595962-73.34667 49.452701l-2.020779 1.867199-1.205707 1.123465c-14.857724 13.888648-29.303695 29.038251-49.664375 51.610841l-21.865151 24.384854-5.378934 5.973025c-20.439746 22.630846-34.493802 37.368057-49.815404 51.847569l-.561126.529637c-21.947593 20.690668-43.087901 37.178616-65.18048 50.230133-52.0724608 30.762573-109.1551664 41.964143-177.5005718 31.147221l-4.2192407-.66963c-67.1443635-10.686163-116.8471445-20.030663-149.9490235-27.816029l-2.047259-.484553c-26.177468-6.235567-39.619362-10.994744-40.257776-13.722389v-.082034l.990922-.134436c.264361 1.94859 13.120761 6.585683 37.229437 12.421238l2.269137.544839c33.732392 8.035177 85.4639057 17.769409 156.1401264 28.955288 68.1138259 10.78027 124.961697-.375217 176.8356106-31.020496 21.622509-12.773816 42.339077-28.856909 63.809563-48.974962l1.193591-1.121825c16.094975-15.173226 30.698828-30.534537 52.657338-54.910781l22.556295-25.157014 3.89044-4.315108 2.481871-2.74123c18.532181-20.431986 32.1624-34.604528 46.234891-47.722001l1.811066-1.680101 1.775678-1.632813c28.863584-26.433202 50.95269-41.326882 72.811163-48.848195 25.686567-8.838528 51.217126-8.157236 94.978122 1.025235l4.368872.930808 2.814967.612965c6.425236 1.410109 13.516561 3.039519 22.246793 5.10022l42.623503 10.158872 4.853135 1.141572 5.449231 1.272838c30.657919 7.133072 57.685959 12.935604 87.61507 18.631493 2.496542.475124 5.000337.946707 7.512246 1.414839 65.306316 12.171024 124.750327-4.676763 180.727031-46.770242 44.981904-33.825586 85.728937-81.753808 129.957962-148.065593l1.34135-2.015079c8.68755-13.077087 17.40285-26.672613 27.2783-42.469048l6.121-9.838137c7.94166-12.828516 23.73438-38.488798 25.38421-41.154868l3.93532-6.34213 2.96077-4.745889c18.42453-29.4561 30.73688-47.628791 42.6982-62.463303 30.47816-37.802867 79.919-42.542802 141.70364-20.665499zm-38.5425-66.4851247c47.06496 16.6653253 99.25293 48.5843777 139.63879 82.1435467l1.22018 1.017433-.64172.76694c-40.46638-33.859237-93.13476-66.1955478-140.55103-82.9852703-61.42917-21.7515772-110.43805-17.0535793-140.59888 20.3496431l-.80223.9993191-1.13377 1.4272135c-12.23931 15.5013836-25.1826 34.9436726-44.94528 66.7635546l-30.52367 49.444308-2.77508 4.453018-2.684093 4.290213c-8.854116 14.123287-16.808005 26.514529-24.712951 38.438487l-.745205 1.122914c-44.804573 67.443671-85.98545 116.077843-131.529895 150.326932-56.188457 42.25331-115.91026 59.180195-181.509662 46.954735-2.514669-.46865-5.021213-.940756-7.520492-1.416408l-4.617294-.884017-4.816046-.933499c-28.77237-5.612386-55.427767-11.45111-86.088912-18.663499l-44.193596-10.528361-5.581383-1.312847c-8.636849-2.020469-15.635864-3.600746-22.154637-4.993112l-1.205138-.25643c-44.414622-9.414216-70.039071-10.194465-95.776054-1.33834-21.928462 7.545608-44.139786 22.59619-73.345497 49.452888l-2.02082 1.867244-1.260589 1.174763c-14.274078 13.346836-28.175057 27.864466-47.31409 49.018206l-7.751979 8.610777-14.851702 16.580299c-24.588639 27.414939-40.094885 43.853499-57.312725 60.085298-21.947592 20.690686-43.087856 37.178623-65.180393 50.230133-52.072397 30.762578-109.15506963 41.964142-177.5006086 31.147221l-8.3930751-1.335765-7.72399-1.242836c-61.1512263-9.892911-106.9354973-18.588803-138.0511573-25.907057l-2.047252-.484554c-26.177256-6.235548-39.619012-10.994728-40.257425-13.722389v-.082034l.990922-.134436c.264364 1.948607 13.120614 6.585699 37.229105 12.42124l2.26912.544837c33.732271 8.035189 85.463727 17.769418 156.1400752 28.955288 68.11395965 10.780269 124.9617976-.375212 176.8356488-31.020496 21.622467-12.773809 42.338991-28.856891 63.809475-48.974961l1.193591-1.121826c17.00939-16.035288 32.353231-32.280434 56.473132-59.154741l18.737833-20.909998 4.65191-5.157171 2.501641-2.759977c18.678117-20.568248 32.379796-34.758508 46.699709-48.019039l.568122-.525306c29.73691-27.45499 52.281341-42.806258 74.585642-50.481193 25.426934-8.749436 50.701051-8.170328 93.65661.749155l2.652176.556504c7.809387 1.655294 16.211974 3.561228 27.244647 6.161669l43.476584 10.360202 4.853076 1.141574 5.449158 1.272839c30.657489 7.133069 57.684786 12.935533 87.613146 18.631379 2.498033.475416 5.003327.947286 7.516743 1.415702 65.305828 12.170748 124.749294-4.677248 180.725433-46.770895 45.43579-34.167383 86.550715-82.723666 131.297964-150.081048l2.235232-3.375154 2.376807-3.611769c7.938679-12.10242 16.065593-24.878893 25.231549-39.59353l28.9392-46.88143 4.57398-7.36792 2.90797-4.656326c18.1003-28.906036 30.27795-46.850401 42.11204-61.5272479 30.48268-37.8023673 79.92644-42.5420523 141.71111-20.6645928zm-28.85-58.1176505c47.06497 16.6651752 99.25295 48.5841054 139.63879 82.1431995l1.22018 1.0174307-.64172.76694c-40.46636-33.8591615-93.13475-66.1953488-140.55103-82.9849198-61.42917-21.75137665-110.43805-17.05315878-140.59888 20.3502944l-.80224.9993149-1.14585 1.44251c-12.37006 15.6688572-25.46125 35.3658545-45.586201 67.7996985l-29.672839 48.073927-2.97349 4.772194-1.8466 2.953433c-9.166247 14.640157-17.351764 27.405799-25.482929 39.673251l-.812969 1.225135c-44.80465 67.443507-85.985547 116.077578-131.529903 150.326593-56.188346 42.253214-115.90988 59.180064-181.508817 46.954635-2.511584-.468083-5.015062-.939615-7.511294-1.414684-32.479005-6.181233-61.542666-12.487866-95.526391-20.481827l-10.866911-2.575932-31.567738-7.53615-8.791845-2.0682c-7.977566-1.860114-14.555358-3.341064-20.705692-4.654756l-1.205166-.25644c-44.416113-9.414692-70.040902-10.195114-95.778316-1.338951-21.928706 7.545598-44.140296 22.596255-73.346672 49.453303l-2.020779 1.867208-1.205707 1.123465c-14.857716 13.88864-29.303667 29.038221-49.664373 51.610833l-20.307625 22.649455c-24.588366 27.414687-40.094836 43.853484-57.312754 60.085332-21.947614 20.690674-43.087936 37.178607-65.1805322 50.230088-52.0725057 30.762493-109.1552669 41.96386-177.5007587 31.146573l-8.3931631-1.335784-9.832234-1.584417c-61.444463-9.970344-107.200853-18.715675-137.990049-26.049635l-2.344743-.562791-2.898849-.708354c-22.730748-5.612391-34.419564-9.912017-35.014263-12.451624v-.082047l.990926-.134402c.272526 2.009293 13.927393 6.875384 39.498645 12.966434l2.045497.484126c33.762837 7.940632 84.830988 17.508475 154.0945588 28.470788 68.1139139 10.780635 124.9618391-.37465 176.8357971-31.019849 21.6225241-12.77378 42.3391061-28.856858 63.8096121-48.974916l1.193592-1.121825 1.119468-1.057943c16.386702-15.524206 31.429994-31.459215 54.578679-57.233608l19.515247-21.775943 3.890446-4.315113c19.812269-21.920664 34.023428-36.767043 48.716755-50.463219l1.811065-1.6801 1.77568-1.632832c28.863606-26.433504 50.952704-41.327363 72.811161-48.848789 25.686821-8.838754 51.217596-8.157406 94.979335 1.025404l3.145378.667525 4.158627.902658c6.604656 1.450447 13.917681 3.133406 22.991626 5.278247l41.759839 9.955021 4.853214 1.141606 5.449323 1.272877c30.658453 7.133293 57.687196 12.936045 87.617049 18.632136 2.494987.474833 4.997218.946129 7.507549 1.413979 65.30536 12.170716 124.748557-4.677245 180.724584-46.770797 45.435704-34.167309 86.550648-82.723491 131.297974-150.080709l2.23525-3.375168 2.385608-3.62517c7.436942-11.337749 15.039346-23.267422 23.506646-36.82822l7.398434-11.917185c8.338314-13.4902 21.743555-35.27027 23.257362-37.71655l3.883996-6.259671c20.11738-32.3293295 33.10866-51.6631963 45.71032-67.2918488 30.48268-37.80259535 79.92644-42.54250233 141.71111-20.6652444z" fill-opacity=".5"/><path d="m144.5 808c3.037566 0 5.5 2.462434 5.5 5.5s-2.462434 5.5-5.5 5.5-5.5-2.462434-5.5-5.5 2.462434-5.5 5.5-5.5zm-139-122c3.03756612 0 5.5 2.462434 5.5 5.5s-2.46243388 5.5-5.5 5.5-5.5-2.462434-5.5-5.5 2.46243388-5.5 5.5-5.5zm230-39c3.037566 0 5.5 2.462434 5.5 5.5s-2.462434 5.5-5.5 5.5-5.5-2.462434-5.5-5.5 2.462434-5.5 5.5-5.5zm613-68c3.038 0 5.5 2.462 5.5 5.5s-2.462 5.5-5.5 5.5-5.5-2.462-5.5-5.5 2.462-5.5 5.5-5.5zm-103-127c3.037566 0 5.5 2.462434 5.5 5.5s-2.462434 5.5-5.5 5.5-5.5-2.462434-5.5-5.5 2.462434-5.5 5.5-5.5zm217-71c3.037566 0 5.5 2.462434 5.5 5.5s-2.462434 5.5-5.5 5.5-5.5-2.462434-5.5-5.5 2.462434-5.5 5.5-5.5zm-597-28c3.037566 0 5.5 2.462434 5.5 5.5s-2.462434 5.5-5.5 5.5-5.5-2.462434-5.5-5.5 2.462434-5.5 5.5-5.5zm548-122c3.037566 0 5.5 2.462434 5.5 5.5s-2.462434 5.5-5.5 5.5-5.5-2.462434-5.5-5.5 2.462434-5.5 5.5-5.5zm335-29c3.03757 0 5.5 2.462434 5.5 5.5s-2.46243 5.5-5.5 5.5-5.5-2.462434-5.5-5.5 2.46243-5.5 5.5-5.5zm-230-30c3.03757 0 5.5 2.462434 5.5 5.5s-2.46243 5.5-5.5 5.5-5.5-2.462434-5.5-5.5 2.46243-5.5 5.5-5.5zm87-172c3.03757 0 5.5 2.46243388 5.5 5.5s-2.46243 5.5-5.5 5.5-5.5-2.46243388-5.5-5.5 2.46243-5.5 5.5-5.5z"/></g></svg>