<svg height="10" viewBox="0 0 10 10" width="10" xmlns="http://www.w3.org/2000/svg"><path d="m8.47140334-.47140334c.23431399.23431399.25774539.59965362.0702942.86017274l-.0702942.08263394-3.52940334 3.52859666 3.52940334 3.52859666c.26034888.26034887.26034888.68245781 0 .94280668-.23431399.23431399-.59965362.25774539-.86017274.0702942l-.08263394-.0702942-3.52859666-3.52940334-3.52859666 3.52940334c-.26034887.26034888-.68245781.26034888-.94280668 0-.23431399-.23431399-.25774539-.59965362-.0702942-.86017274l.0702942-.08263394 3.52840334-3.52859666-3.52840334-3.52859666c-.26034888-.26034887-.26034888-.68245781 0-.94280668.23431399-.23431399.59965362-.25774539.86017274-.0702942l.08263394.0702942 3.52859666 3.52840334 3.52859666-3.52840334c.26034887-.26034888.68245781-.26034888.94280668 0z" transform="translate(1 1)"/></svg>